<?xml version="1.0" encoding="utf-8"?>
<!-- Generator: Adobe Illustrator 18.0.0, SVG Export Plug-In . SVG Version: 6.00 Build 0)  -->
<!DOCTYPE svg PUBLIC "-//W3C//DTD SVG 1.1//EN" "http://www.w3.org/Graphics/SVG/1.1/DTD/svg11.dtd">
<svg version="1.1" id="Layer_1" xmlns="http://www.w3.org/2000/svg" xmlns:xlink="http://www.w3.org/1999/xlink" x="0px" y="0px"
	 viewBox="0 0 296.5 65" enable-background="new 0 0 296.5 65" xml:space="preserve">
<path fill-rule="evenodd" clip-rule="evenodd" fill="#008045" d="M259.1,63.3c-18-1-31.1-14.6-31.1-31.3c0-17.3,14.3-30.3,33.3-30.3
	c19,0,33.3,13,33.3,30.3c0,16.3-12.7,29.8-30.2,31.2c-1.3,0.1-5.2-1-5.1-4.1c0.1-7.3-0.1-14.4,0.1-21.7c-2.2,6.7-2.9,14.9-9,14.9
	c-7-0.2-9.3-4-7.7-10.8c-10.4-1.5-8.4-14,0-14.9c4.4-0.4,10,3,14.5,3.3c-2.6-3.1-10.7-9-10.3-13.8c0.8-8,10.1-7.7,14.8-3.2
	c5.3-4.7,10.8-4,13.4,1.6c3.5,9-9.9,13-9.7,15.2c5.9-0.7,11.2-2.8,15.1-2.6c7.2,0.2,8.4,11.7-0.5,14.3c1.8,5.2-0.7,10.1-7.5,10.1
	c-8.7-0.3-9-11.9-10-14.3c0.1,5.1,0.1,14,0.1,19.1c-0.2,2.7,2.2,3.6,6.7,2c15.6-5,19.7-14.6,20.3-25.9c0-18.2-15.6-26.7-28.6-26.9
	c-13.9,0.1-28.3,10.6-28.9,26.4c-0.5,10.7,8.7,24.2,21.9,25.5c0.9,0.1,1.9,0.1,2.8-0.4C256.4,60.3,257.2,62.7,259.1,63.3"/>
<g>
	<path fill="#231F20" d="M20.9,5.2c5.5,0,10,1.7,13.5,5.1c3.4,3.4,5.2,7.7,5.2,13c0,3.6-0.8,6.7-2.4,9.5c-1.6,2.8-3.7,4.9-6.5,6.4
		c-2.8,1.5-6.1,2.2-10,2.2c-5.2,0-9.4-1.4-12.7-4.2c-4-3.4-6-8-6-13.7c0-5.3,1.7-9.7,5.2-13.1C10.7,6.9,15.2,5.2,20.9,5.2z M21,10.7
		c-2.7,0-4.8,1-6.3,3c-2,2.5-3,5.7-3,9.7c0,4,0.9,7.1,2.8,9.4c1.6,2,3.7,3,6.3,3c2.6,0,4.7-1,6.3-3c1.9-2.3,2.8-5.5,2.8-9.4
		c0-2.8-0.4-5.1-1.2-7c-0.8-1.9-1.9-3.3-3.2-4.2C24,11.2,22.6,10.7,21,10.7z"/>
</g>
<g>
	<path fill="#231F20" d="M4.5,51.2h3.1v0.5H7.4c-0.2,0-0.4,0-0.5,0.1c-0.1,0.1-0.2,0.2-0.2,0.3c-0.1,0.1-0.1,0.3-0.1,0.7V58
		c0,0.3,0,0.5,0.1,0.6c0,0.1,0.1,0.2,0.2,0.2c0.1,0.1,0.3,0.1,0.5,0.1h0.2v0.5H4.5v-0.5h0.3c0.2,0,0.4,0,0.5-0.1
		c0.1-0.1,0.2-0.1,0.2-0.2c0-0.1,0.1-0.3,0.1-0.6v-5.4c0-0.3,0-0.5-0.1-0.6c0-0.1-0.1-0.2-0.2-0.2c-0.1,0-0.3-0.1-0.5-0.1H4.5V51.2z
		"/>
	<path fill="#231F20" d="M8.6,51.2h2.5l3.7,6.2v-4.7c0-0.3,0-0.5-0.1-0.6c-0.1-0.1-0.1-0.2-0.2-0.3c-0.1-0.1-0.3-0.1-0.5-0.1h-0.2
		v-0.5h2.7v0.5h-0.1c-0.2,0-0.4,0-0.5,0.1c-0.1,0-0.2,0.2-0.3,0.3c-0.1,0.1-0.1,0.3-0.1,0.6v6.7h-0.7L10.3,52v5.9c0,0.3,0,0.5,0,0.6
		c0,0.1,0.1,0.2,0.1,0.2c0.1,0.1,0.2,0.1,0.3,0.2c0.1,0,0.3,0,0.6,0v0.5H8.6v-0.5h0.1c0.3,0,0.5,0,0.6-0.1c0.1-0.1,0.2-0.1,0.2-0.3
		c0.1-0.1,0.1-0.4,0.1-0.7v-5.2c0-0.3,0-0.5,0-0.6c0-0.1-0.1-0.2-0.2-0.3c-0.1-0.1-0.3-0.1-0.6-0.1H8.6V51.2z"/>
	<path fill="#231F20" d="M17.5,51.2h2.6l2.4,6.5l2.4-6.5h2.5v0.5h-0.2c-0.3,0-0.4,0-0.5,0.1c-0.1,0-0.2,0.1-0.2,0.2
		c-0.1,0.1-0.1,0.3-0.1,0.5v5.4c0,0.3,0,0.6,0.1,0.7c0,0.1,0.1,0.2,0.2,0.2c0.1,0,0.3,0.1,0.5,0.1h0.2v0.5h-3.1v-0.5h0.2
		c0.2,0,0.3,0,0.4,0c0.1,0,0.2-0.1,0.2-0.2c0.1-0.1,0.1-0.2,0.1-0.2c0-0.2,0-0.3,0-0.4v-6l-2.7,7.3H22l-2.7-7.2v5.8
		c0,0.3,0,0.5,0.1,0.6c0.1,0.1,0.1,0.2,0.2,0.2c0.1,0.1,0.3,0.1,0.6,0.1h0.2v0.5h-2.9v-0.5h0.2c0.3,0,0.5,0,0.6-0.1
		c0.1-0.1,0.2-0.1,0.3-0.3c0.1-0.1,0.1-0.3,0.1-0.6v-5.3c0-0.3,0-0.5-0.1-0.6c0-0.1-0.1-0.2-0.2-0.2c-0.1,0-0.3-0.1-0.5-0.1h-0.3
		V51.2z"/>
	<path fill="#231F20" d="M33,51c0.7,0,1.4,0.2,2,0.5c0.7,0.4,1.2,0.9,1.5,1.5c0.3,0.6,0.5,1.3,0.5,2.1c0,1.3-0.4,2.3-1.2,3.1
		c-0.8,0.8-1.8,1.2-3,1.2c-1.4,0-2.4-0.5-3.2-1.4c-0.6-0.8-1-1.7-1-2.8c0-0.8,0.2-1.5,0.6-2.2c0.4-0.6,0.9-1.1,1.6-1.5
		C31.4,51.2,32.2,51,33,51z M33,51.7c-0.6,0-1.1,0.1-1.6,0.4c-0.4,0.3-0.8,0.7-1.1,1.2c-0.3,0.5-0.4,1.2-0.4,2
		c0,0.8,0.1,1.4,0.4,1.9c0.3,0.5,0.6,0.9,1,1.2c0.4,0.3,0.9,0.4,1.5,0.4c0.5,0,1-0.1,1.4-0.4c0.4-0.3,0.8-0.7,1-1.3
		c0.3-0.6,0.4-1.3,0.4-2c0-0.7-0.1-1.4-0.4-2c-0.2-0.5-0.6-0.9-0.9-1.2C34,51.8,33.6,51.7,33,51.7z"/>
	<path fill="#231F20" d="M38.2,51.2h3.9c1,0,1.6,0.1,2,0.1c0.5,0.1,0.9,0.3,1.2,0.7c0.3,0.3,0.5,0.7,0.5,1.2c0,0.3-0.1,0.6-0.2,0.9
		c-0.2,0.3-0.4,0.5-0.7,0.7C44.6,54.9,44.3,55,44,55c0.4,0.1,0.7,0.2,1,0.3c0.3,0.2,0.6,0.4,0.8,0.7c0.2,0.3,0.3,0.7,0.3,1
		c0,0.4-0.1,0.7-0.3,1c-0.2,0.3-0.5,0.6-0.8,0.8c-0.4,0.2-0.8,0.3-1.2,0.4c-0.5,0.1-0.9,0.1-1.4,0.1h-4.1v-0.5h0.3
		c0.3,0,0.5,0,0.5-0.1c0.1-0.1,0.2-0.3,0.2-0.6v-5.7c0-0.3,0-0.4-0.1-0.5c0-0.1-0.1-0.2-0.2-0.2c-0.1,0-0.3-0.1-0.5-0.1h-0.3V51.2z
		 M40.3,51.8v3h1.5c0.7,0,1.2,0,1.4-0.1c0.4-0.1,0.7-0.3,0.9-0.5c0.2-0.3,0.3-0.6,0.3-1c0-0.3-0.1-0.6-0.3-0.9
		c-0.2-0.2-0.5-0.4-0.8-0.5c-0.2,0-0.7-0.1-1.3-0.1H40.3z M40.3,55.4v2.7c0,0.3,0,0.4,0,0.5c0,0.1,0.1,0.1,0.2,0.1
		c0.1,0,0.2,0,0.6,0h0.8c0.8,0,1.4,0,1.7-0.1c0.3-0.1,0.6-0.3,0.9-0.6c0.2-0.3,0.4-0.6,0.4-1c0-0.3-0.1-0.6-0.3-0.9
		c-0.2-0.3-0.5-0.5-0.8-0.6c-0.3-0.1-1-0.2-1.8-0.2H40.3z"/>
	<path fill="#231F20" d="M47.1,51.2h3.1v0.5H50c-0.2,0-0.4,0-0.5,0.1c-0.1,0.1-0.2,0.2-0.2,0.3c0,0.1-0.1,0.3-0.1,0.7V58
		c0,0.3,0,0.5,0.1,0.6c0,0.1,0.1,0.2,0.2,0.2c0.1,0.1,0.3,0.1,0.5,0.1h0.2v0.5h-3.1v-0.5h0.3c0.2,0,0.4,0,0.5-0.1
		c0.1-0.1,0.2-0.1,0.2-0.2c0-0.1,0.1-0.3,0.1-0.6v-5.4c0-0.3,0-0.5-0.1-0.6c0-0.1-0.1-0.2-0.2-0.2c-0.1,0-0.3-0.1-0.5-0.1h-0.3V51.2
		z"/>
	<path fill="#231F20" d="M51.2,51.2h3.2v0.5h-0.3c-0.2,0-0.4,0-0.5,0.1c-0.1,0-0.2,0.1-0.2,0.2c0,0.1-0.1,0.2-0.1,0.5v5.7
		c0,0.3,0,0.4,0,0.5c0,0.1,0.1,0.1,0.2,0.1c0.1,0,0.2,0,0.5,0h0.4c0.5,0,0.9-0.1,1.3-0.2c0.4-0.2,0.7-0.4,1-0.6
		c0.3-0.3,0.5-0.7,0.8-1.3l0.5,0.2l-0.9,2.6h-5.9v-0.5h0.3c0.3,0,0.4,0,0.5-0.1c0.1-0.1,0.1-0.1,0.2-0.2c0-0.1,0.1-0.3,0.1-0.5v-5.6
		c0-0.3,0-0.5-0.1-0.6c0-0.1-0.1-0.2-0.2-0.2c-0.1,0-0.3-0.1-0.5-0.1h-0.3V51.2z"/>
	<path fill="#231F20" d="M58.4,51.2h3.1v0.5h-0.2c-0.2,0-0.4,0-0.5,0.1c-0.1,0.1-0.2,0.2-0.2,0.3c0,0.1-0.1,0.3-0.1,0.7V58
		c0,0.3,0,0.5,0.1,0.6c0,0.1,0.1,0.2,0.2,0.2c0.1,0.1,0.3,0.1,0.5,0.1h0.2v0.5h-3.1v-0.5h0.3c0.2,0,0.4,0,0.5-0.1
		c0.1-0.1,0.2-0.1,0.2-0.2c0-0.1,0.1-0.3,0.1-0.6v-5.4c0-0.3,0-0.5-0.1-0.6c0-0.1-0.1-0.2-0.2-0.2c-0.1,0-0.3-0.1-0.5-0.1h-0.3V51.2
		z"/>
	<path fill="#231F20" d="M65.6,51.2h1l2.5,6.9c0.1,0.3,0.3,0.6,0.4,0.7c0.1,0.1,0.3,0.2,0.5,0.2h0.1v0.5h-2.9v-0.5
		c0.1,0,0.2,0,0.3,0c0.2,0,0.3,0,0.4-0.1c0.1-0.1,0.2-0.2,0.2-0.3c0-0.1-0.1-0.3-0.2-0.6l-0.5-1.6h-3l-0.6,1.8
		c-0.1,0.2-0.1,0.3-0.1,0.4c0,0.1,0,0.2,0.1,0.2c0,0.1,0.1,0.1,0.2,0.1c0.1,0,0.2,0,0.3,0c0.1,0,0.2,0,0.3,0v0.5H62v-0.5
		c0.2,0,0.4,0,0.5-0.1c0.1,0,0.2-0.1,0.3-0.2c0.1-0.1,0.2-0.3,0.3-0.6L65.6,51.2z M64.6,55.7h2.5l-1.3-3.5L64.6,55.7z"/>
	<path fill="#231F20" d="M70.8,51.2H75c0.8,0,1.4,0.1,1.8,0.3c0.4,0.2,0.7,0.4,1,0.7c0.2,0.3,0.3,0.7,0.3,1.1c0,0.4-0.1,0.8-0.3,1.1
		c-0.2,0.3-0.5,0.6-0.9,0.8c-0.4,0.2-0.9,0.3-1.6,0.3l2.2,2.6c0.2,0.2,0.3,0.4,0.3,0.4c0.1,0.1,0.3,0.2,0.4,0.3
		c0.2,0.1,0.3,0.1,0.5,0.1h0.1v0.5H77l-3-3.9h-1.1V58c0,0.3,0,0.5,0,0.5c0,0.1,0.1,0.2,0.2,0.3c0.1,0.1,0.3,0.1,0.6,0.1h0.2v0.5
		h-3.1v-0.5h0.3c0.2,0,0.4,0,0.4,0c0.1,0,0.1-0.1,0.2-0.1c0.1-0.1,0.1-0.2,0.1-0.3c0,0,0-0.2,0-0.6v-5.4c0-0.2,0-0.4-0.1-0.5
		c0-0.1-0.1-0.2-0.2-0.2c-0.1,0-0.2-0.1-0.4-0.1h-0.3V51.2z M72.9,51.8v3.1h1.7c0.6,0,1,0,1.2-0.1c0.3-0.1,0.6-0.3,0.8-0.5
		c0.2-0.3,0.3-0.6,0.3-1c0-0.3-0.1-0.6-0.2-0.8c-0.1-0.2-0.3-0.4-0.6-0.5c-0.2-0.1-0.6-0.2-1.1-0.2H72.9z"/>
	<path fill="#231F20" d="M79.3,51.2h3.1v0.5h-0.2c-0.2,0-0.4,0-0.5,0.1c-0.1,0.1-0.2,0.2-0.2,0.3c0,0.1-0.1,0.3-0.1,0.7V58
		c0,0.3,0,0.5,0.1,0.6c0.1,0.1,0.1,0.2,0.2,0.2c0.1,0.1,0.3,0.1,0.5,0.1h0.2v0.5h-3.1v-0.5h0.3c0.2,0,0.4,0,0.5-0.1
		c0.1-0.1,0.2-0.1,0.2-0.2c0-0.1,0.1-0.3,0.1-0.6v-5.4c0-0.3,0-0.5-0.1-0.6c0-0.1-0.1-0.2-0.2-0.2c-0.1,0-0.3-0.1-0.5-0.1h-0.3V51.2
		z"/>
	<path fill="#231F20" d="M86.6,51.2h1l2.6,6.9c0.1,0.3,0.3,0.6,0.4,0.7c0.1,0.1,0.3,0.2,0.5,0.2h0.1v0.5h-2.9v-0.5
		c0.1,0,0.2,0,0.3,0c0.2,0,0.3,0,0.4-0.1c0.1-0.1,0.2-0.2,0.2-0.3c0-0.1-0.1-0.3-0.2-0.6l-0.5-1.6h-3l-0.6,1.8
		c-0.1,0.2-0.1,0.3-0.1,0.4c0,0.1,0,0.2,0.1,0.2c0,0.1,0.1,0.1,0.2,0.1c0.1,0,0.2,0,0.3,0c0.1,0,0.2,0,0.3,0v0.5H83v-0.5
		c0.2,0,0.4,0,0.5-0.1c0.1,0,0.2-0.1,0.3-0.2c0.1-0.1,0.2-0.3,0.3-0.6L86.6,51.2z M85.5,55.7h2.5l-1.3-3.5L85.5,55.7z"/>
	<path fill="#231F20" d="M95.6,51.2h4.2c0.8,0,1.4,0.1,1.8,0.3c0.4,0.2,0.7,0.4,1,0.7c0.2,0.3,0.3,0.7,0.3,1.1
		c0,0.4-0.1,0.8-0.3,1.1c-0.2,0.3-0.5,0.6-0.9,0.8c-0.4,0.2-1,0.3-1.6,0.3l2.2,2.6c0.2,0.2,0.3,0.4,0.3,0.4c0.1,0.1,0.3,0.2,0.4,0.3
		c0.2,0.1,0.3,0.1,0.5,0.1h0.2v0.5h-1.9l-3-3.9h-1.1V58c0,0.3,0,0.5,0,0.5c0.1,0.1,0.1,0.2,0.2,0.3c0.1,0.1,0.3,0.1,0.6,0.1h0.2v0.5
		h-3.1v-0.5h0.3c0.2,0,0.3,0,0.4,0c0.1,0,0.1-0.1,0.2-0.1c0.1-0.1,0.1-0.2,0.1-0.3c0,0,0-0.2,0-0.6v-5.4c0-0.2,0-0.4-0.1-0.5
		c-0.1-0.1-0.1-0.2-0.2-0.2c-0.1,0-0.2-0.1-0.4-0.1h-0.3V51.2z M97.7,51.8v3.1h1.7c0.6,0,1,0,1.2-0.1c0.3-0.1,0.6-0.3,0.8-0.5
		c0.2-0.3,0.3-0.6,0.3-1c0-0.3-0.1-0.6-0.2-0.8c-0.1-0.2-0.3-0.4-0.6-0.5c-0.2-0.1-0.6-0.2-1.1-0.2H97.7z"/>
	<path fill="#231F20" d="M104.1,51.2h3.2v0.5h-0.2c-0.3,0-0.4,0-0.5,0.1c-0.1,0-0.2,0.1-0.2,0.2c-0.1,0.1-0.1,0.3-0.1,0.6v3.7
		c0,0.7,0.1,1.1,0.2,1.5c0.2,0.3,0.4,0.6,0.8,0.8c0.4,0.2,0.8,0.3,1.2,0.3c0.4,0,0.9-0.1,1.3-0.3c0.4-0.2,0.7-0.5,0.8-0.8
		c0.2-0.3,0.2-0.8,0.2-1.5v-3.6c0-0.3,0-0.4-0.1-0.6c0-0.1-0.1-0.2-0.2-0.3c-0.1,0-0.3-0.1-0.5-0.1h-0.2v-0.5h2.7v0.5h-0.2
		c-0.3,0-0.5,0.1-0.6,0.2c-0.1,0.1-0.2,0.3-0.2,0.7v3.8c0,0.7-0.1,1.3-0.4,1.7c-0.3,0.5-0.6,0.8-1.1,1.1c-0.5,0.3-1.1,0.4-1.7,0.4
		c-0.6,0-1.2-0.1-1.7-0.4c-0.5-0.3-0.9-0.6-1.1-1c-0.2-0.4-0.4-0.9-0.4-1.5v-4c0-0.3,0-0.4-0.1-0.6c0-0.1-0.1-0.2-0.2-0.2
		c-0.1,0-0.2-0.1-0.5-0.1h-0.3V51.2z"/>
	<path fill="#231F20" d="M113.6,51.2h4.2c0.8,0,1.4,0.1,1.8,0.3c0.4,0.2,0.7,0.4,1,0.7c0.2,0.3,0.3,0.7,0.3,1.1
		c0,0.4-0.1,0.8-0.3,1.1c-0.2,0.3-0.5,0.6-0.9,0.8c-0.4,0.2-0.9,0.3-1.6,0.3l2.2,2.6c0.2,0.2,0.3,0.4,0.3,0.4
		c0.1,0.1,0.3,0.2,0.4,0.3c0.1,0.1,0.3,0.1,0.5,0.1h0.1v0.5h-1.9l-3-3.9h-1.1V58c0,0.3,0,0.5,0,0.5c0,0.1,0.1,0.2,0.2,0.3
		c0.1,0.1,0.3,0.1,0.6,0.1h0.2v0.5h-3.1v-0.5h0.3c0.2,0,0.4,0,0.4,0c0.1,0,0.1-0.1,0.2-0.1c0.1-0.1,0.1-0.2,0.1-0.3c0,0,0-0.2,0-0.6
		v-5.4c0-0.2,0-0.4-0.1-0.5c0-0.1-0.1-0.2-0.2-0.2c-0.1,0-0.2-0.1-0.4-0.1h-0.3V51.2z M115.8,51.8v3.1h1.7c0.6,0,1,0,1.2-0.1
		c0.3-0.1,0.6-0.3,0.8-0.5c0.2-0.3,0.3-0.6,0.3-1c0-0.3-0.1-0.6-0.2-0.8c-0.1-0.2-0.3-0.4-0.6-0.5c-0.2-0.1-0.6-0.2-1.1-0.2H115.8z"
		/>
	<path fill="#231F20" d="M125.4,51.2h1l2.5,6.9c0.1,0.3,0.3,0.6,0.4,0.7c0.1,0.1,0.3,0.2,0.5,0.2h0.1v0.5H127v-0.5
		c0.1,0,0.2,0,0.3,0c0.2,0,0.3,0,0.4-0.1c0.1-0.1,0.2-0.2,0.2-0.3c0-0.1-0.1-0.3-0.2-0.6l-0.5-1.6h-3l-0.6,1.8
		c-0.1,0.2-0.1,0.3-0.1,0.4c0,0.1,0,0.2,0.1,0.2c0,0.1,0.1,0.1,0.2,0.1c0.1,0,0.2,0,0.3,0c0.1,0,0.2,0,0.3,0v0.5h-2.5v-0.5
		c0.2,0,0.4,0,0.5-0.1c0.1,0,0.2-0.1,0.3-0.2c0.1-0.1,0.2-0.3,0.3-0.6L125.4,51.2z M124.3,55.7h2.5l-1.3-3.5L124.3,55.7z"/>
	<path fill="#231F20" d="M130.5,51.2h3.2v0.5h-0.3c-0.2,0-0.4,0-0.5,0.1c-0.1,0-0.2,0.1-0.2,0.2c0,0.1-0.1,0.2-0.1,0.5v5.7
		c0,0.3,0,0.4,0,0.5c0,0.1,0.1,0.1,0.1,0.1c0.1,0,0.2,0,0.5,0h0.4c0.5,0,0.9-0.1,1.3-0.2c0.4-0.2,0.7-0.4,1-0.6
		c0.3-0.3,0.5-0.7,0.8-1.3l0.5,0.2l-0.9,2.6h-5.9v-0.5h0.3c0.2,0,0.4,0,0.5-0.1c0.1-0.1,0.2-0.1,0.2-0.2c0-0.1,0.1-0.3,0.1-0.5v-5.6
		c0-0.3,0-0.5-0.1-0.6c0-0.1-0.1-0.2-0.2-0.2c-0.1,0-0.3-0.1-0.5-0.1h-0.3V51.2z"/>
	<path fill="#231F20" d="M141,51.2h3.1v0.5h-0.4c-0.2,0-0.3,0-0.4,0.1c-0.1,0-0.1,0.1-0.1,0.2c0,0.1,0,0.2,0.1,0.3
		c0,0,0.1,0.1,0.1,0.1l1.6,3l1.8-3.1c0.1-0.1,0.1-0.2,0.1-0.2c0,0,0-0.1,0-0.1c0-0.1,0-0.1,0-0.1c0,0-0.1-0.1-0.1-0.1
		c0,0-0.1,0-0.3,0h-0.3v-0.5h2.5v0.5c-0.2,0-0.4,0-0.5,0c-0.1,0-0.2,0.1-0.3,0.1c-0.1,0.1-0.2,0.2-0.3,0.4l-2.2,3.7V58
		c0,0.3,0,0.5,0.1,0.6c0,0.1,0.1,0.2,0.2,0.2c0.1,0,0.4,0.1,0.7,0.1v0.5h-3.2v-0.5h0.2c0.3,0,0.4,0,0.5-0.1c0.1-0.1,0.2-0.1,0.2-0.2
		c0-0.1,0.1-0.3,0.1-0.5v-1.9l-2.2-3.8c-0.2-0.3-0.3-0.5-0.4-0.6c-0.1-0.1-0.3-0.1-0.6-0.1V51.2z"/>
	<path fill="#231F20" d="M153,51.2h3.2v0.5H156c-0.3,0-0.4,0-0.5,0.1c-0.1,0-0.2,0.1-0.2,0.2c0,0.1-0.1,0.3-0.1,0.6v3.7
		c0,0.7,0.1,1.1,0.2,1.5c0.2,0.3,0.4,0.6,0.8,0.8c0.4,0.2,0.8,0.3,1.2,0.3c0.4,0,0.9-0.1,1.3-0.3c0.4-0.2,0.7-0.5,0.8-0.8
		c0.2-0.3,0.2-0.8,0.2-1.5v-3.6c0-0.3,0-0.4-0.1-0.6c0-0.1-0.1-0.2-0.2-0.3c-0.1,0-0.3-0.1-0.5-0.1h-0.2v-0.5h2.7v0.5h-0.2
		c-0.3,0-0.5,0.1-0.6,0.2c-0.1,0.1-0.2,0.3-0.2,0.7v3.8c0,0.7-0.1,1.3-0.4,1.7c-0.3,0.5-0.6,0.8-1.1,1.1c-0.5,0.3-1.1,0.4-1.7,0.4
		c-0.6,0-1.2-0.1-1.7-0.4c-0.5-0.3-0.9-0.6-1.1-1c-0.2-0.4-0.4-0.9-0.4-1.5v-4c0-0.3,0-0.4-0.1-0.6c0-0.1-0.1-0.2-0.2-0.2
		c-0.1,0-0.2-0.1-0.5-0.1H153V51.2z"/>
	<path fill="#231F20" d="M162.5,51.2h4.2c0.8,0,1.4,0.1,1.8,0.3c0.4,0.2,0.7,0.4,1,0.7c0.2,0.3,0.3,0.7,0.3,1.1
		c0,0.4-0.1,0.8-0.3,1.1c-0.2,0.3-0.5,0.6-0.9,0.8c-0.4,0.2-0.9,0.3-1.6,0.3l2.2,2.6c0.2,0.2,0.3,0.4,0.3,0.4
		c0.1,0.1,0.3,0.2,0.4,0.3c0.2,0.1,0.3,0.1,0.5,0.1h0.2v0.5h-1.9l-3-3.9h-1.1V58c0,0.3,0,0.5,0,0.5c0,0.1,0.1,0.2,0.2,0.3
		c0.1,0.1,0.3,0.1,0.6,0.1h0.2v0.5h-3.1v-0.5h0.3c0.2,0,0.4,0,0.4,0c0.1,0,0.1-0.1,0.2-0.1c0.1-0.1,0.1-0.2,0.1-0.3c0,0,0-0.2,0-0.6
		v-5.4c0-0.2,0-0.4-0.1-0.5c-0.1-0.1-0.1-0.2-0.2-0.2c-0.1,0-0.2-0.1-0.4-0.1h-0.3V51.2z M164.7,51.8v3.1h1.7c0.6,0,1,0,1.2-0.1
		c0.3-0.1,0.6-0.3,0.8-0.5c0.2-0.3,0.3-0.6,0.3-1c0-0.3-0.1-0.6-0.2-0.8c-0.1-0.2-0.3-0.4-0.6-0.5c-0.2-0.1-0.6-0.2-1.1-0.2H164.7z"
		/>
	<path fill="#231F20" d="M171.1,51.2h3.9c1,0,1.6,0.1,2,0.1c0.5,0.1,0.9,0.3,1.2,0.7c0.3,0.3,0.5,0.7,0.5,1.2c0,0.3-0.1,0.6-0.2,0.9
		c-0.2,0.3-0.4,0.5-0.7,0.7c-0.2,0.1-0.5,0.2-0.8,0.3c0.4,0.1,0.8,0.2,1,0.3c0.3,0.2,0.6,0.4,0.8,0.7c0.2,0.3,0.3,0.7,0.3,1
		c0,0.4-0.1,0.7-0.3,1c-0.2,0.3-0.5,0.6-0.8,0.8c-0.3,0.2-0.8,0.3-1.2,0.4c-0.5,0.1-1,0.1-1.4,0.1h-4.1v-0.5h0.3
		c0.3,0,0.4,0,0.5-0.1c0.1-0.1,0.2-0.3,0.2-0.6v-5.7c0-0.3,0-0.4-0.1-0.5c0-0.1-0.1-0.2-0.2-0.2c-0.1,0-0.3-0.1-0.5-0.1h-0.3V51.2z
		 M173.2,51.8v3h1.5c0.7,0,1.2,0,1.4-0.1c0.4-0.1,0.7-0.3,0.9-0.5c0.2-0.3,0.3-0.6,0.3-1c0-0.3-0.1-0.6-0.3-0.9
		c-0.2-0.2-0.5-0.4-0.8-0.5c-0.2,0-0.7-0.1-1.3-0.1H173.2z M173.2,55.4v2.7c0,0.3,0,0.4,0,0.5c0,0.1,0.1,0.1,0.2,0.1
		c0.1,0,0.2,0,0.6,0h0.8c0.8,0,1.4,0,1.7-0.1c0.3-0.1,0.6-0.3,0.9-0.6c0.2-0.3,0.4-0.6,0.4-1c0-0.3-0.1-0.6-0.3-0.9
		c-0.2-0.3-0.5-0.5-0.8-0.6c-0.3-0.1-0.9-0.2-1.8-0.2H173.2z"/>
	<path fill="#231F20" d="M183.1,51.2h1l2.5,6.9c0.1,0.3,0.2,0.6,0.4,0.7c0.1,0.1,0.3,0.2,0.5,0.2h0.1v0.5h-2.9v-0.5
		c0.1,0,0.2,0,0.3,0c0.2,0,0.3,0,0.4-0.1c0.1-0.1,0.2-0.2,0.2-0.3c0-0.1-0.1-0.3-0.2-0.6l-0.5-1.6h-3l-0.6,1.8
		c-0.1,0.2-0.1,0.3-0.1,0.4c0,0.1,0,0.2,0.1,0.2c0,0.1,0.1,0.1,0.2,0.1c0.1,0,0.2,0,0.3,0c0.1,0,0.2,0,0.3,0v0.5h-2.5v-0.5
		c0.2,0,0.4,0,0.5-0.1c0.1,0,0.2-0.1,0.3-0.2c0.1-0.1,0.2-0.3,0.3-0.6L183.1,51.2z M182.1,55.7h2.5l-1.3-3.5L182.1,55.7z"/>
	<path fill="#231F20" d="M188.2,51.2h2.5l3.7,6.2v-4.7c0-0.3,0-0.5-0.1-0.6c-0.1-0.1-0.1-0.2-0.2-0.3c-0.1-0.1-0.3-0.1-0.5-0.1h-0.2
		v-0.5h2.7v0.5h-0.1c-0.2,0-0.4,0-0.5,0.1c-0.1,0-0.2,0.2-0.3,0.3c-0.1,0.1-0.1,0.3-0.1,0.6v6.7h-0.7L190,52v5.9c0,0.3,0,0.5,0,0.6
		c0,0.1,0.1,0.2,0.1,0.2c0.1,0.1,0.2,0.1,0.3,0.2c0.1,0,0.3,0,0.6,0v0.5h-2.8v-0.5h0.2c0.3,0,0.5,0,0.6-0.1c0.1-0.1,0.2-0.1,0.2-0.3
		c0.1-0.1,0.1-0.4,0.1-0.7v-5.2c0-0.3,0-0.5,0-0.6c0-0.1-0.1-0.2-0.2-0.3c-0.1-0.1-0.3-0.1-0.6-0.1h-0.2V51.2z"/>
	<path fill="#231F20" d="M200.2,51.2h1l2.6,6.9c0.1,0.3,0.2,0.6,0.4,0.7c0.1,0.1,0.3,0.2,0.5,0.2h0.1v0.5h-2.9v-0.5
		c0.1,0,0.2,0,0.3,0c0.2,0,0.3,0,0.4-0.1c0.1-0.1,0.2-0.2,0.2-0.3c0-0.1,0-0.3-0.2-0.6l-0.5-1.6h-3l-0.6,1.8
		c-0.1,0.2-0.1,0.3-0.1,0.4c0,0.1,0,0.2,0.1,0.2c0,0.1,0.1,0.1,0.2,0.1c0.1,0,0.2,0,0.3,0c0.1,0,0.2,0,0.3,0v0.5h-2.4v-0.5
		c0.2,0,0.4,0,0.5-0.1c0.1,0,0.2-0.1,0.3-0.2c0.1-0.1,0.2-0.3,0.3-0.6L200.2,51.2z M199.2,55.7h2.5l-1.3-3.5L199.2,55.7z"/>
</g>
<g>
	<path fill="#231F20" d="M61.3,5.8h17.1v4.8h-1.1c-1.1,0-1.7,0.1-2,0.2c-0.4,0.2-0.7,0.4-0.9,0.8c-0.2,0.3-0.3,1-0.3,1.9v9.3
		L85,12.6c0.5-0.5,0.8-0.8,0.9-0.9c0.1-0.2,0.1-0.3,0.1-0.4c0-0.2-0.1-0.4-0.3-0.5c-0.2-0.1-0.7-0.2-1.5-0.2h-1.4V5.8h15.8v4.8h-0.5
		c-0.7,0-1.2,0-1.5,0.1c-0.3,0.1-0.6,0.2-1,0.5c-0.4,0.3-0.9,0.7-1.6,1.2l-8.4,7.3l10.1,13.6c0.9,1.2,1.5,1.9,1.9,2.1
		c0.5,0.3,1.3,0.4,2.3,0.4h0.7v4.8H82.9v-4.8h0.7c1.3,0,2.1-0.1,2.3-0.2c0.3-0.1,0.4-0.3,0.4-0.4c0-0.2-0.3-0.7-0.8-1.4L79.4,25
		l-5.3,4.6v3.5c0,0.9,0.1,1.5,0.2,1.8c0.2,0.3,0.4,0.6,0.7,0.7c0.3,0.1,0.9,0.2,1.9,0.2h1.4v4.8H61.3v-4.8h1.3c1,0,1.7-0.1,2-0.2
		c0.3-0.2,0.6-0.4,0.7-0.8c0.1-0.3,0.2-1,0.2-2.1V13.7c0-1-0.1-1.7-0.2-2.1c-0.1-0.3-0.4-0.6-0.7-0.8c-0.3-0.2-0.9-0.3-1.8-0.3h-1.4
		V5.8z"/>
	<path fill="#231F20" d="M123.9,31.4l3.4,3.5c-2,2.2-4,3.9-6,4.9c-2,1-4.3,1.5-6.6,1.5c-3.8,0-7-1.3-9.6-3.9
		c-2.6-2.6-3.9-5.7-3.9-9.4c0-2.4,0.6-4.6,1.8-6.6c1.2-2,2.8-3.6,4.9-4.7c2.1-1.1,4.4-1.7,7-1.7c1.7,0,3.2,0.2,4.6,0.7
		c1.4,0.5,2.6,1.2,3.6,2.1c1,0.9,1.9,2,2.5,3.3c0.6,1.3,1,2.6,1.3,4c0.1,0.7,0.1,1.8,0.1,3.3H110c0,2.1,0.6,3.8,1.9,5.1
		c1.2,1.3,2.7,2,4.4,2c1.1,0,2.3-0.3,3.7-1C121.3,33.8,122.6,32.8,123.9,31.4z M118.9,24.2c-0.1-1-0.4-1.8-0.7-2.4
		c-0.4-0.6-0.9-1-1.5-1.4c-0.6-0.3-1.2-0.5-1.9-0.5c-0.7,0-1.4,0.2-2,0.5c-0.6,0.3-1.2,0.8-1.6,1.4c-0.4,0.6-0.6,1.4-0.8,2.3H118.9z
		"/>
	<path fill="#231F20" d="M152.5,31.4l3.4,3.5c-2,2.2-4,3.9-6,4.9c-2,1-4.3,1.5-6.6,1.5c-3.8,0-7-1.3-9.6-3.9
		c-2.6-2.6-3.9-5.7-3.9-9.4c0-2.4,0.6-4.6,1.8-6.6c1.2-2,2.8-3.6,4.9-4.7c2.1-1.1,4.4-1.7,7-1.7c1.7,0,3.2,0.2,4.6,0.7
		c1.4,0.5,2.6,1.2,3.6,2.1c1,0.9,1.9,2,2.5,3.3c0.6,1.3,1.1,2.6,1.3,4c0.1,0.7,0.2,1.8,0.2,3.3h-16.9c0,2.1,0.6,3.8,1.9,5.1
		c1.2,1.3,2.7,2,4.4,2c1.1,0,2.3-0.3,3.7-1C149.9,33.8,151.2,32.8,152.5,31.4z M147.5,24.2c-0.1-1-0.4-1.8-0.7-2.4
		c-0.4-0.6-0.8-1-1.5-1.4c-0.6-0.3-1.2-0.5-1.9-0.5c-0.7,0-1.4,0.2-2,0.5c-0.7,0.3-1.2,0.8-1.6,1.4c-0.4,0.6-0.6,1.4-0.8,2.3H147.5z
		"/>
	<path fill="#231F20" d="M174.4,15.7V21h-4.1v12.3c0,1,0,1.6,0.1,1.8c0.1,0.3,0.3,0.5,0.6,0.6c0.3,0.1,0.8,0.2,1.7,0.2h1.4v4.8
		h-15.4v-4.8h1.2c1,0,1.6,0,1.8-0.2c0.2-0.1,0.4-0.3,0.5-0.5c0.1-0.3,0.2-0.9,0.2-1.9V21h-3.7v-5.3h3.7v-2.6c0-1.9,0.3-3.3,1-4.5
		c0.8-1.4,2-2.5,3.7-3.4c1.7-0.9,3.7-1.3,6.1-1.3c2.5,0,4.5,0.5,5.9,1.6c1.4,1.1,2.1,2.2,2.1,3.5c0,1-0.3,1.8-1,2.5
		c-0.6,0.6-1.5,1-2.5,1c-0.4,0-0.8-0.1-1.2-0.2c-0.4-0.1-0.8-0.3-1.1-0.6c-0.3-0.2-0.7-0.6-1.3-1.3c-0.6-0.6-1-1-1.2-1.1
		c-0.3-0.2-0.5-0.2-0.7-0.2c-0.6,0-1,0.3-1.3,0.8c-0.3,0.5-0.5,1.6-0.5,3.1v2.6H174.4z"/>
	<path fill="#231F20" d="M199.5,31.4l3.4,3.5c-2,2.2-4,3.9-6,4.9c-2,1-4.3,1.5-6.6,1.5c-3.8,0-7-1.3-9.6-3.9
		c-2.6-2.6-3.9-5.7-3.9-9.4c0-2.4,0.6-4.6,1.8-6.6c1.2-2,2.8-3.6,4.9-4.7c2.1-1.1,4.4-1.7,7-1.7c1.7,0,3.2,0.2,4.6,0.7
		c1.4,0.5,2.6,1.2,3.6,2.1c1,0.9,1.9,2,2.5,3.3c0.6,1.3,1.1,2.6,1.3,4c0.1,0.7,0.2,1.8,0.2,3.3h-16.9c0,2.1,0.7,3.8,1.9,5.1
		c1.2,1.3,2.7,2,4.4,2c1.1,0,2.3-0.3,3.7-1C196.9,33.8,198.2,32.8,199.5,31.4z M194.5,24.2c-0.1-1-0.4-1.8-0.7-2.4
		c-0.4-0.6-0.8-1-1.5-1.4c-0.6-0.3-1.3-0.5-1.9-0.5c-0.7,0-1.4,0.2-2,0.5c-0.7,0.3-1.2,0.8-1.6,1.4c-0.4,0.6-0.6,1.4-0.8,2.3H194.5z
		"/>
</g>
<path fill-rule="evenodd" clip-rule="evenodd" fill="#231F20" d="M48.7,18.6l-2.3-2.6c1.8-1.7,2.9-2.8,3.3-3.5
	c0.5-0.6,0.8-1.4,1.2-2.4c-0.3,0.2-0.5,0.3-0.8,0.4c-0.3,0.1-0.5,0.1-0.8,0.1c-0.8,0-1.4-0.3-2-1c-0.6-0.7-0.9-1.5-0.9-2.4
	c0-1.1,0.4-2,1.1-2.8c0.7-0.7,1.7-1.1,2.7-1.1c0.8,0,1.6,0.2,2.3,0.7c0.8,0.5,1.3,1.1,1.7,1.9c0.4,0.8,0.6,1.7,0.6,2.8
	c0,1.8-0.6,3.5-1.7,5.1C52.1,15.7,50.6,17.3,48.7,18.6z"/>
</svg>
