<?xml version="1.0" encoding="utf-8"?>
<!-- Generator: Adobe Illustrator 18.0.0, SVG Export Plug-In . SVG Version: 6.00 Build 0)  -->
<!DOCTYPE svg PUBLIC "-//W3C//DTD SVG 1.1//EN" "http://www.w3.org/Graphics/SVG/1.1/DTD/svg11.dtd">
<svg version="1.1" id="Layer_1" xmlns="http://www.w3.org/2000/svg" xmlns:xlink="http://www.w3.org/1999/xlink" x="0px" y="0px"
	 viewBox="0 0 200.9 37.8" enable-background="new 0 0 200.9 37.8" xml:space="preserve">
<g>
	<g>
		<path fill="#FFFFFF" d="M18.9,1.7c5.5,0,10,1.7,13.5,5.1c3.4,3.4,5.2,7.7,5.2,13c0,3.6-0.8,6.7-2.4,9.5c-1.6,2.8-3.7,4.9-6.5,6.4
			c-2.8,1.5-6.1,2.2-10,2.2c-5.2,0-9.4-1.4-12.7-4.2c-4-3.4-6-8-6-13.7c0-5.3,1.7-9.7,5.2-13.1C8.7,3.4,13.3,1.7,18.9,1.7z M19,7.2
			c-2.7,0-4.8,1-6.3,3c-2,2.5-3,5.7-3,9.7c0,4,0.9,7.1,2.8,9.4c1.6,2,3.7,3,6.3,3c2.6,0,4.7-1,6.3-3c1.9-2.3,2.8-5.5,2.8-9.4
			c0-2.8-0.4-5.1-1.2-7c-0.8-1.9-1.9-3.3-3.2-4.2C22,7.7,20.6,7.2,19,7.2z"/>
	</g>
	<g>
		<path fill="#FFFFFF" d="M59.3,2.3h17.1v4.8h-1.1c-1.1,0-1.7,0.1-2,0.2c-0.4,0.2-0.7,0.4-0.9,0.8c-0.2,0.3-0.3,1-0.3,1.9v9.3
			L83,9.1c0.5-0.5,0.8-0.8,0.9-0.9C84,8,84,7.9,84,7.8c0-0.2-0.1-0.4-0.3-0.5c-0.2-0.1-0.7-0.2-1.5-0.2h-1.4V2.3h15.8v4.8h-0.5
			c-0.7,0-1.2,0-1.5,0.1c-0.3,0.1-0.6,0.2-1,0.5c-0.4,0.3-0.9,0.7-1.6,1.2l-8.4,7.3l10.1,13.6c0.9,1.2,1.5,1.9,1.9,2.1
			c0.5,0.3,1.3,0.4,2.3,0.4h0.7v4.8H80.9v-4.8h0.7c1.3,0,2.1-0.1,2.3-0.2c0.3-0.1,0.4-0.3,0.4-0.4c0-0.2-0.3-0.7-0.8-1.4l-6.1-8.8
			l-5.3,4.6v3.5c0,0.9,0.1,1.5,0.2,1.8c0.2,0.3,0.4,0.6,0.7,0.7c0.3,0.1,0.9,0.2,1.9,0.2h1.4v4.8H59.3v-4.8h1.3c1,0,1.7-0.1,2-0.2
			c0.3-0.2,0.6-0.4,0.7-0.8c0.1-0.3,0.2-1,0.2-2.1V10.2c0-1-0.1-1.7-0.2-2.1c-0.1-0.3-0.4-0.6-0.7-0.8c-0.3-0.2-0.9-0.3-1.8-0.3
			h-1.4V2.3z"/>
		<path fill="#FFFFFF" d="M121.9,27.9l3.4,3.5c-2,2.2-4,3.9-6,4.9c-2,1-4.3,1.5-6.6,1.5c-3.8,0-7-1.3-9.6-3.9
			c-2.6-2.6-3.9-5.7-3.9-9.4c0-2.4,0.6-4.6,1.8-6.6c1.2-2,2.8-3.6,4.9-4.7c2.1-1.1,4.4-1.7,7-1.7c1.7,0,3.2,0.2,4.6,0.7
			c1.4,0.5,2.6,1.2,3.6,2.1c1,0.9,1.9,2,2.5,3.3c0.6,1.3,1,2.6,1.3,4c0.1,0.7,0.1,1.8,0.1,3.3H108c0,2.1,0.6,3.8,1.9,5.1
			c1.2,1.3,2.7,2,4.4,2c1.1,0,2.3-0.3,3.7-1C119.3,30.3,120.6,29.3,121.9,27.9z M116.9,20.7c-0.1-1-0.4-1.8-0.7-2.4
			c-0.4-0.6-0.9-1-1.5-1.4c-0.6-0.3-1.2-0.5-1.9-0.5c-0.7,0-1.4,0.2-2,0.5c-0.6,0.3-1.2,0.8-1.6,1.4c-0.4,0.6-0.6,1.4-0.8,2.3H116.9
			z"/>
		<path fill="#FFFFFF" d="M150.5,27.9l3.4,3.5c-2,2.2-4,3.9-6,4.9c-2,1-4.3,1.5-6.6,1.5c-3.8,0-7-1.3-9.6-3.9
			c-2.6-2.6-3.9-5.7-3.9-9.4c0-2.4,0.6-4.6,1.8-6.6c1.2-2,2.8-3.6,4.9-4.7c2.1-1.1,4.4-1.7,7-1.7c1.7,0,3.2,0.2,4.6,0.7
			c1.4,0.5,2.6,1.2,3.6,2.1c1,0.9,1.9,2,2.5,3.3c0.6,1.3,1.1,2.6,1.3,4c0.1,0.7,0.2,1.8,0.2,3.3h-16.9c0,2.1,0.6,3.8,1.9,5.1
			c1.2,1.3,2.7,2,4.4,2c1.1,0,2.3-0.3,3.7-1C147.9,30.3,149.2,29.3,150.5,27.9z M145.5,20.7c-0.1-1-0.4-1.8-0.7-2.4
			c-0.4-0.6-0.8-1-1.5-1.4c-0.6-0.3-1.2-0.5-1.9-0.5c-0.7,0-1.4,0.2-2,0.5c-0.7,0.3-1.2,0.8-1.6,1.4c-0.4,0.6-0.6,1.4-0.8,2.3H145.5
			z"/>
		<path fill="#FFFFFF" d="M172.4,12.2v5.3h-4.1v12.3c0,1,0,1.6,0.1,1.8c0.1,0.3,0.3,0.5,0.6,0.6c0.3,0.1,0.8,0.2,1.7,0.2h1.4v4.8
			h-15.4v-4.8h1.2c1,0,1.6,0,1.8-0.2c0.2-0.1,0.4-0.3,0.5-0.5c0.1-0.3,0.2-0.9,0.2-1.9V17.5h-3.7v-5.3h3.7V9.6c0-1.9,0.3-3.3,1-4.5
			c0.8-1.4,2-2.5,3.7-3.4c1.7-0.9,3.7-1.3,6.1-1.3c2.5,0,4.5,0.5,5.9,1.6c1.4,1.1,2.1,2.2,2.1,3.5c0,1-0.3,1.8-1,2.5
			c-0.6,0.6-1.5,1-2.5,1c-0.4,0-0.8-0.1-1.2-0.2c-0.4-0.1-0.8-0.3-1.1-0.6c-0.3-0.2-0.7-0.6-1.3-1.3c-0.6-0.6-1-1-1.2-1.1
			c-0.3-0.2-0.5-0.2-0.7-0.2c-0.6,0-1,0.3-1.3,0.8c-0.3,0.5-0.5,1.6-0.5,3.1v2.6H172.4z"/>
		<path fill="#FFFFFF" d="M197.5,27.9l3.4,3.5c-2,2.2-4,3.9-6,4.9c-2,1-4.3,1.5-6.6,1.5c-3.8,0-7-1.3-9.6-3.9
			c-2.6-2.6-3.9-5.7-3.9-9.4c0-2.4,0.6-4.6,1.8-6.6c1.2-2,2.8-3.6,4.9-4.7c2.1-1.1,4.4-1.7,7-1.7c1.7,0,3.2,0.2,4.6,0.7
			c1.4,0.5,2.6,1.2,3.6,2.1c1,0.9,1.9,2,2.5,3.3c0.6,1.3,1.1,2.6,1.3,4c0.1,0.7,0.2,1.8,0.2,3.3h-16.9c0,2.1,0.7,3.8,1.9,5.1
			c1.2,1.3,2.7,2,4.4,2c1.1,0,2.3-0.3,3.7-1C194.9,30.3,196.2,29.3,197.5,27.9z M192.5,20.7c-0.1-1-0.4-1.8-0.7-2.4
			c-0.4-0.6-0.8-1-1.5-1.4c-0.6-0.3-1.3-0.5-1.9-0.5c-0.7,0-1.4,0.2-2,0.5c-0.7,0.3-1.2,0.8-1.6,1.4c-0.4,0.6-0.6,1.4-0.8,2.3H192.5
			z"/>
	</g>
	<path fill-rule="evenodd" clip-rule="evenodd" fill="#FFFFFF" d="M46.7,15.1l-2.3-2.6c1.8-1.7,2.9-2.8,3.3-3.5
		c0.5-0.6,0.8-1.4,1.2-2.4c-0.3,0.2-0.5,0.3-0.8,0.4c-0.3,0.1-0.5,0.1-0.8,0.1c-0.8,0-1.4-0.3-2-1c-0.6-0.7-0.9-1.5-0.9-2.4
		c0-1.1,0.4-2,1.1-2.8C46.3,0.4,47.2,0,48.3,0c0.8,0,1.6,0.2,2.3,0.7c0.8,0.5,1.3,1.1,1.7,1.9c0.4,0.8,0.6,1.7,0.6,2.8
		c0,1.8-0.6,3.5-1.7,5.1C50.1,12.2,48.6,13.7,46.7,15.1z"/>
</g>
<g>
	<g>
		<path fill="#FFFFFF" d="M18.9,1.7c5.5,0,10,1.7,13.5,5.1c3.4,3.4,5.2,7.7,5.2,13c0,3.6-0.8,6.7-2.4,9.5c-1.6,2.8-3.7,4.9-6.5,6.4
			c-2.8,1.5-6.1,2.2-10,2.2c-5.2,0-9.4-1.4-12.7-4.2c-4-3.4-6-8-6-13.7c0-5.3,1.7-9.7,5.2-13.1C8.7,3.4,13.3,1.7,18.9,1.7z M19,7.2
			c-2.7,0-4.8,1-6.3,3c-2,2.5-3,5.7-3,9.7c0,4,0.9,7.1,2.8,9.4c1.6,2,3.7,3,6.3,3c2.6,0,4.7-1,6.3-3c1.9-2.3,2.8-5.5,2.8-9.4
			c0-2.8-0.4-5.1-1.2-7c-0.8-1.9-1.9-3.3-3.2-4.2C22,7.7,20.6,7.2,19,7.2z"/>
	</g>
	<g>
		<path fill="#FFFFFF" d="M59.3,2.3h17.1v4.8h-1.1c-1.1,0-1.7,0.1-2,0.2c-0.4,0.2-0.7,0.4-0.9,0.8c-0.2,0.3-0.3,1-0.3,1.9v9.3
			L83,9.1c0.5-0.5,0.8-0.8,0.9-0.9C84,8,84,7.9,84,7.8c0-0.2-0.1-0.4-0.3-0.5c-0.2-0.1-0.7-0.2-1.5-0.2h-1.4V2.3h15.8v4.8h-0.5
			c-0.7,0-1.2,0-1.5,0.1c-0.3,0.1-0.6,0.2-1,0.5c-0.4,0.3-0.9,0.7-1.6,1.2l-8.4,7.3l10.1,13.6c0.9,1.2,1.5,1.9,1.9,2.1
			c0.5,0.3,1.3,0.4,2.3,0.4h0.7v4.8H80.9v-4.8h0.7c1.3,0,2.1-0.1,2.3-0.2c0.3-0.1,0.4-0.3,0.4-0.4c0-0.2-0.3-0.7-0.8-1.4l-6.1-8.8
			l-5.3,4.6v3.5c0,0.9,0.1,1.5,0.2,1.8c0.2,0.3,0.4,0.6,0.7,0.7c0.3,0.1,0.9,0.2,1.9,0.2h1.4v4.8H59.3v-4.8h1.3c1,0,1.7-0.1,2-0.2
			c0.3-0.2,0.6-0.4,0.7-0.8c0.1-0.3,0.2-1,0.2-2.1V10.2c0-1-0.1-1.7-0.2-2.1c-0.1-0.3-0.4-0.6-0.7-0.8c-0.3-0.2-0.9-0.3-1.8-0.3
			h-1.4V2.3z"/>
		<path fill="#FFFFFF" d="M121.9,27.9l3.4,3.5c-2,2.2-4,3.9-6,4.9c-2,1-4.3,1.5-6.6,1.5c-3.8,0-7-1.3-9.6-3.9
			c-2.6-2.6-3.9-5.7-3.9-9.4c0-2.4,0.6-4.6,1.8-6.6c1.2-2,2.8-3.6,4.9-4.7c2.1-1.1,4.4-1.7,7-1.7c1.7,0,3.2,0.2,4.6,0.7
			c1.4,0.5,2.6,1.2,3.6,2.1c1,0.9,1.9,2,2.5,3.3c0.6,1.3,1,2.6,1.3,4c0.1,0.7,0.1,1.8,0.1,3.3H108c0,2.1,0.6,3.8,1.9,5.1
			c1.2,1.3,2.7,2,4.4,2c1.1,0,2.3-0.3,3.7-1C119.3,30.3,120.6,29.3,121.9,27.9z M116.9,20.7c-0.1-1-0.4-1.8-0.7-2.4
			c-0.4-0.6-0.9-1-1.5-1.4c-0.6-0.3-1.2-0.5-1.9-0.5c-0.7,0-1.4,0.2-2,0.5c-0.6,0.3-1.2,0.8-1.6,1.4c-0.4,0.6-0.6,1.4-0.8,2.3H116.9
			z"/>
		<path fill="#FFFFFF" d="M150.5,27.9l3.4,3.5c-2,2.2-4,3.9-6,4.9c-2,1-4.3,1.5-6.6,1.5c-3.8,0-7-1.3-9.6-3.9
			c-2.6-2.6-3.9-5.7-3.9-9.4c0-2.4,0.6-4.6,1.8-6.6c1.2-2,2.8-3.6,4.9-4.7c2.1-1.1,4.4-1.7,7-1.7c1.7,0,3.2,0.2,4.6,0.7
			c1.4,0.5,2.6,1.2,3.6,2.1c1,0.9,1.9,2,2.5,3.3c0.6,1.3,1.1,2.6,1.3,4c0.1,0.7,0.2,1.8,0.2,3.3h-16.9c0,2.1,0.6,3.8,1.9,5.1
			c1.2,1.3,2.7,2,4.4,2c1.1,0,2.3-0.3,3.7-1C147.9,30.3,149.2,29.3,150.5,27.9z M145.5,20.7c-0.1-1-0.4-1.8-0.7-2.4
			c-0.4-0.6-0.8-1-1.5-1.4c-0.6-0.3-1.2-0.5-1.9-0.5c-0.7,0-1.4,0.2-2,0.5c-0.7,0.3-1.2,0.8-1.6,1.4c-0.4,0.6-0.6,1.4-0.8,2.3H145.5
			z"/>
		<path fill="#FFFFFF" d="M172.4,12.2v5.3h-4.1v12.3c0,1,0,1.6,0.1,1.8c0.1,0.3,0.3,0.5,0.6,0.6c0.3,0.1,0.8,0.2,1.7,0.2h1.4v4.8
			h-15.4v-4.8h1.2c1,0,1.6,0,1.8-0.2c0.2-0.1,0.4-0.3,0.5-0.5c0.1-0.3,0.2-0.9,0.2-1.9V17.5h-3.7v-5.3h3.7V9.6c0-1.9,0.3-3.3,1-4.5
			c0.8-1.4,2-2.5,3.7-3.4c1.7-0.9,3.7-1.3,6.1-1.3c2.5,0,4.5,0.5,5.9,1.6c1.4,1.1,2.1,2.2,2.1,3.5c0,1-0.3,1.8-1,2.5
			c-0.6,0.6-1.5,1-2.5,1c-0.4,0-0.8-0.1-1.2-0.2c-0.4-0.1-0.8-0.3-1.1-0.6c-0.3-0.2-0.7-0.6-1.3-1.3c-0.6-0.6-1-1-1.2-1.1
			c-0.3-0.2-0.5-0.2-0.7-0.2c-0.6,0-1,0.3-1.3,0.8c-0.3,0.5-0.5,1.6-0.5,3.1v2.6H172.4z"/>
		<path fill="#FFFFFF" d="M197.5,27.9l3.4,3.5c-2,2.2-4,3.9-6,4.9c-2,1-4.3,1.5-6.6,1.5c-3.8,0-7-1.3-9.6-3.9
			c-2.6-2.6-3.9-5.7-3.9-9.4c0-2.4,0.6-4.6,1.8-6.6c1.2-2,2.8-3.6,4.9-4.7c2.1-1.1,4.4-1.7,7-1.7c1.7,0,3.2,0.2,4.6,0.7
			c1.4,0.5,2.6,1.2,3.6,2.1c1,0.9,1.9,2,2.5,3.3c0.6,1.3,1.1,2.6,1.3,4c0.1,0.7,0.2,1.8,0.2,3.3h-16.9c0,2.1,0.7,3.8,1.9,5.1
			c1.2,1.3,2.7,2,4.4,2c1.1,0,2.3-0.3,3.7-1C194.9,30.3,196.2,29.3,197.5,27.9z M192.5,20.7c-0.1-1-0.4-1.8-0.7-2.4
			c-0.4-0.6-0.8-1-1.5-1.4c-0.6-0.3-1.3-0.5-1.9-0.5c-0.7,0-1.4,0.2-2,0.5c-0.7,0.3-1.2,0.8-1.6,1.4c-0.4,0.6-0.6,1.4-0.8,2.3H192.5
			z"/>
	</g>
	<path fill-rule="evenodd" clip-rule="evenodd" fill="#FFFFFF" d="M46.7,15.1l-2.3-2.6c1.8-1.7,2.9-2.8,3.3-3.5
		c0.5-0.6,0.8-1.4,1.2-2.4c-0.3,0.2-0.5,0.3-0.8,0.4c-0.3,0.1-0.5,0.1-0.8,0.1c-0.8,0-1.4-0.3-2-1c-0.6-0.7-0.9-1.5-0.9-2.4
		c0-1.1,0.4-2,1.1-2.8C46.3,0.4,47.2,0,48.3,0c0.8,0,1.6,0.2,2.3,0.7c0.8,0.5,1.3,1.1,1.7,1.9c0.4,0.8,0.6,1.7,0.6,2.8
		c0,1.8-0.6,3.5-1.7,5.1C50.1,12.2,48.6,13.7,46.7,15.1z"/>
</g>
</svg>
