<?xml version="1.0" encoding="utf-8"?>
<!-- Generator: Adobe Illustrator 18.0.0, SVG Export Plug-In . SVG Version: 6.00 Build 0)  -->
<!DOCTYPE svg PUBLIC "-//W3C//DTD SVG 1.1//EN" "http://www.w3.org/Graphics/SVG/1.1/DTD/svg11.dtd">
<svg version="1.1" id="Layer_1" xmlns="http://www.w3.org/2000/svg" xmlns:xlink="http://www.w3.org/1999/xlink" x="0px" y="0px"
	 viewBox="0 0 79 40.3" enable-background="new 0 0 79 40.3" xml:space="preserve">
<g id="Your_Icon">
	<path fill="#999999" d="M79,0.7L65.4,5l0.1,0.8l-5.9,1.7l0.6,3.4l-7.5-0.4l-9.1-4.9c0,0-3-1.2-10-1.1l-1.2,1.5L18.6,7.6l0.3-2
		l-6-1.4L13,3.5L0,0v29l10.4,0.9l0.1-1.1l5.5-0.2l0.3-2.2l1.2,0c0.5,2.7,3.5,2.4,3.5,2.4s0.5-0.3,1-0.6l0.5,0.4l-1.3,0.9
		c-0.1,1,0.1,2.6,1.2,3.4c1.2,0.9,3.2,0.8,3.7,0.3c0.2-0.2,0.6-0.6,1.1-1l0.6,0.4l-1.7,2c1.5,3.1,5.3,2.4,5.3,2.4l0.7-1l0.6,0.4
		l-0.6,0.7c0.7,2,3,2,4,1.9l0.8,0.6l0.1,0c0.9,0.3,1.7,0.4,2.5,0.4c1.9-0.1,3.3-0.8,4-1.3c0.6,0.2,1.2,0.2,1.7,0.2
		c1.7,0,2.9-0.9,3.7-1.7c0.4-0.4,0.6-0.8,0.8-1.1c2.3-0.3,3.7-1.2,4.5-2.3c0.4-0.6,0.6-1.1,0.7-1.6c1.7-0.3,2.9-1.3,3.5-2.3
		c0.8-1.1,1-2.1,1-2.2l0.1-0.5l-1.1-1.3l4.5-1.3l1,5.2l5.5-0.2l0.2,1.1l9.5-1.5L79,0.7z M14.5,27l-3.6,0.1l2.8-20.9L17,7L14.5,27z
		 M56.6,29.4c-0.5,0.6-1.2,1.1-2.3,1.2l-7.4-9l-1.5,1.2l7.6,9.3c-0.1,0.2-0.2,0.5-0.4,0.8c-0.4,0.6-1.2,1.2-3.2,1.5l-5.2-6.7
		L42.6,29l5.2,6.7c-0.1,0.2-0.3,0.5-0.6,0.7c-0.5,0.5-1.2,0.9-2.1,0.9c-0.4,0-0.8,0-1.2-0.2l-2.7-3.4l-1.5,1.2l2.2,2.8
		c-0.6,0.3-1.5,0.6-2.4,0.6c-0.5,0-1.1-0.1-1.6-0.2l-0.4-0.3l1.6-3c-0.3-3.2-3.4-2.2-3.4-2.2L33.8,35l-0.5-0.4l2-2.6
		c0.7-4.7-3.8-3.6-3.8-3.6L29,31.2l-0.7-0.5c0.3-0.6,0.4-1.2,0.1-1.7c-1-1.8-3-1.6-4.1-1.4l-1-0.7c0.2-0.8-0.8-2.5-2.7-2.8
		c-0.8-0.1-1.5,0.1-2.1,0.4l-2.1-0.1l1.9-14.9l12.3-1.4l0,0c0,0,2.6,5.6,7.3,1.5l6.5,3.3l13,15.1C57.2,28.5,57,29,56.6,29.4z
		 M65.3,28.6L61.6,8.7l3.2-0.9l4.1,20.7L65.3,28.6z"/>
</g>
</svg>
