<?xml version="1.0" encoding="utf-8"?>
<!-- Generator: Adobe Illustrator 18.0.0, SVG Export Plug-In . SVG Version: 6.00 Build 0)  -->
<!DOCTYPE svg PUBLIC "-//W3C//DTD SVG 1.1//EN" "http://www.w3.org/Graphics/SVG/1.1/DTD/svg11.dtd">
<svg version="1.1" id="Layer_1" xmlns="http://www.w3.org/2000/svg" xmlns:xlink="http://www.w3.org/1999/xlink" x="0px" y="0px"
	 viewBox="0 0 49.3 54.5" enable-background="new 0 0 49.3 54.5" xml:space="preserve">
<g>
	<g>
		<path fill="#999999" d="M18.5,28.2c1.3,1.2,3.3,2.4,5.1,2.4c1.2,0,2.7-0.7,2.7-2.1c0-1.6-2.2-1.9-4.4-2.7
			c-2.2-0.8-4.4-2.1-4.4-5.5c0-3.3,2.3-6.4,5.8-6.7v-3.4h2.6v3.4c1.8,0.2,3.6,0.7,5.2,1.6l-2.1,4.1c-1-0.8-2.3-1.4-3.6-1.4
			c-1.2,0-2.4,0.5-2.4,1.6c0,1.3,1.8,1.9,2.8,2.2c3.2,1.1,6.1,2.3,6.1,6.2c0,4-2.3,6-5.9,6.9v3.5h-2.6V35c-1.2,0-2.5-0.3-3.7-0.7
			c-1.2-0.5-2.4-1-3.3-1.9L18.5,28.2z"/>
	</g>
	<path fill="#999999" d="M42.1,7.2C37.4,2.6,31.2,0,24.6,0S11.9,2.6,7.2,7.2C2.6,11.9,0,18.1,0,24.6c0,6.6,2.6,12.8,7.2,17.4
		c0.8,0.8,1.7,1.5,2.5,2.2c-0.6,1.8-2,3.3-3.7,4c-0.8,0.3-1.3,1.1-1.4,1.9c-0.1,0.8,0.3,1.7,1,2.1c2.1,1.4,4.8,2.1,7.5,2.1
		c1.8,0,3.5-0.3,5.2-0.9c2.4-0.9,4.4-2.4,5.8-4.3c0.1,0,0.2,0,0.4,0c6.6,0,12.8-2.6,17.4-7.2C51.7,32.4,51.7,16.8,42.1,7.2z
		 M38.6,38.6c-3.7,3.7-8.7,5.8-14,5.8c-1,0-2-0.1-2.9-0.2c0,0,0,0,0,0l0,0c-1,3.3-3.1,4.3-4.9,5c-1.7,0.6-3.4,0.7-5,0.5
		c1-1.1,1.8-2.5,2.3-4c0.2-0.7,0.4-1.4,0.5-2.1c0.1-0.5,0.1-1.1,0.1-1.8c-0.9-0.6-3.1-2.2-4.1-3.2c-3.7-3.7-5.8-8.7-5.8-14
		c0-5.3,2.1-10.2,5.8-14c3.7-3.7,8.7-5.8,14-5.8c5.3,0,10.2,2.1,14,5.8C46.3,18.4,46.3,30.9,38.6,38.6z"/>
</g>
</svg>
